<svg width="56" height="56" viewBox="0 0 56 56" fill="none" xmlns="http://www.w3.org/2000/svg">
<g clip-path="url(#clip0_92_3242)">
<path d="M43.4349 21.5949L37.835 28L43.4349 34.37L56 28L43.4349 21.5949ZM17.5 28L28 38.5L38.5 28L28 17.5L17.5 28ZM34.37 12.5651L28 0L21.63 12.5651L28 18.165L34.37 12.5651ZM21.5949 43.4001L28 56L34.37 43.4001L28 37.835L21.5949 43.4001ZM0 28L12.5651 34.37L18.165 28L12.5651 21.5949L0 28Z" fill="#C9F036"/>
<path d="M43.4349 21.5949L47.8099 8.19L34.37 12.565L35.665 20.2999L43.4349 21.5949ZM35.665 35.665L34.37 43.4001L47.8099 47.7751L43.4349 34.37L35.665 35.665ZM12.5651 21.5949L20.335 20.2999L21.63 12.565L8.19011 8.19L12.5651 21.5949ZM12.5651 34.37L8.19011 47.7751L21.595 43.4001L20.3 35.665L12.5651 34.37Z" fill="#3BC8C4"/>
<path d="M43.4349 21.5949L37.415 18.55L34.37 12.5651L28 14.665L21.63 12.5651L18.585 18.55L12.5651 21.595L14.665 28L12.5651 34.37L18.55 37.415L21.595 43.4001L28 41.335L34.37 43.4001L37.415 37.415L43.4349 34.37L41.335 28L43.4349 21.5949ZM28 35L21 28L28 21L35 28L28 35Z" fill="#068884"/>
</g>
<defs>
<clipPath id="clip0_92_3242">
<rect width="56" height="56" fill="white"/>
</clipPath>
</defs>
</svg>
