<svg width="40" height="40" viewBox="0 0 40 40" fill="none" xmlns="http://www.w3.org/2000/svg">
<path d="M20.0164 5.03897L21.1656 7.31475C20.7984 7.43514 20.407 7.49999 20 7.49999C19.593 7.49999 19.2016 7.43514 18.8344 7.31483L20.0164 5.03897Z" fill="#3BC8C4"/>
<path d="M23.75 3.75C23.75 4.50313 23.5281 5.20391 23.1461 5.79063L20.0164 5.03898L16.8539 5.79063C16.4719 5.20391 16.25 4.50313 16.25 3.75C16.25 1.67891 17.9289 0 20 0C22.0711 0 23.75 1.67891 23.75 3.75Z" fill="#3BC8C4"/>
<path d="M8.66562 16.4344L8.63109 20.0286L8.66562 23.5657C8.29844 23.6852 7.90703 23.7501 7.5 23.7501C5.42891 23.7501 3.75 22.0712 3.75 20.0001C3.75 17.929 5.42891 16.2501 7.5 16.2501C7.90703 16.25 8.29844 16.3149 8.66562 16.4344Z" fill="#3BC8C4"/>
<path d="M11.25 20C11.25 20.7531 11.0281 21.4539 10.6469 22.0406L8.63109 20.0285L10.6469 17.9593C11.0281 18.5461 11.25 19.2469 11.25 20Z" fill="#3BC8C4"/>
<path d="M20.0164 34.7709L18.8344 32.6852C19.2016 32.5648 19.593 32.5 20 32.5C20.407 32.5 20.7984 32.5648 21.1656 32.6852L20.0164 34.7709Z" fill="#3BC8C4"/>
<path d="M23.75 36.25C23.75 38.3211 22.0711 40 20 40C17.9289 40 16.25 38.3211 16.25 36.25C16.25 35.4969 16.4719 34.7961 16.8539 34.2094L20.0164 34.7709L23.1461 34.2094C23.5281 34.7961 23.75 35.4969 23.75 36.25Z" fill="#3BC8C4"/>
<path d="M29.3531 17.9594L31.4526 19.993L29.3531 22.0406C28.9719 21.4539 28.75 20.7531 28.75 20C28.75 19.2469 28.9719 18.5461 29.3531 17.9594Z" fill="#3BC8C4"/>
<path d="M36.25 20C36.25 22.0711 34.5711 23.75 32.5 23.75C32.093 23.75 31.7016 23.6852 31.3344 23.5656L31.4527 19.993L31.3344 16.4344C31.7016 16.3148 32.093 16.25 32.5 16.25C34.5711 16.25 36.25 17.9289 36.25 20Z" fill="#3BC8C4"/>
<path d="M10.6469 22.0406L8.63109 20.0285L8.66562 23.5656L16.8539 34.2094L20.0164 34.7709L18.8344 32.6851L10.6469 22.0406ZM31.3344 16.4344L23.1461 5.79061L20.0164 5.03897L21.1656 7.31475L29.3531 17.9593L31.4526 19.9929L31.3344 16.4344ZM29.3531 22.0406L21.1656 32.6851L20.0164 34.7709L23.1461 34.2094L31.3344 23.5656L31.4527 19.993L29.3531 22.0406ZM16.8539 5.79061L8.66562 16.4344L8.63109 20.0286L10.6469 17.9594L18.8344 7.31483L20.0164 5.03897L16.8539 5.79061Z" fill="#C8F036"/>
<path d="M23.1461 5.79062C22.6844 6.50234 21.9875 7.04687 21.1656 7.31484L20 5.79921L18.8344 7.31484C18.0125 7.04687 17.3156 6.50234 16.8539 5.79062L20 1.70078L23.1461 5.79062Z" fill="#068884"/>
<path d="M34.0773 20L31.3344 23.5656C30.5125 23.2969 29.8156 22.7523 29.3531 22.0406L30.9227 20L29.3531 17.9594C29.8156 17.2476 30.5125 16.7031 31.3344 16.4344L34.0773 20Z" fill="#068884"/>
<path d="M9.07734 20L10.6469 22.0406C10.1844 22.7523 9.4875 23.2969 8.66562 23.5656L5.92266 20L8.66562 16.4344C9.4875 16.7031 10.1844 17.2476 10.6469 17.9594L9.07734 20Z" fill="#068884"/>
<path d="M23.1461 34.2094L20 38.2992L16.8539 34.2094C17.3156 33.4977 18.0125 32.9531 18.8344 32.6852L20 34.2008L21.1656 32.6852C21.9875 32.9531 22.6844 33.4977 23.1461 34.2094Z" fill="#068884"/>
</svg>
