<svg width="40" height="40" viewBox="0 0 40 40" fill="none" xmlns="http://www.w3.org/2000/svg">
<path d="M21.0938 8.75L20.7249 9.92492C20.5 9.975 20.2499 10 20 10C19.7501 10 19.5 9.975 19.2751 9.92492L19.1406 8.67188L21.0938 8.75Z" fill="#3BC8C4"/>
<path d="M23.75 6.25C23.75 7.175 23.425 8 22.85 8.65008L20 6.25L17.15 8.65008C16.575 8 16.25 7.175 16.25 6.25C16.25 4.17492 17.9249 2.5 20 2.5C22.0751 2.5 23.75 4.17492 23.75 6.25Z" fill="#3BC8C4"/>
<path d="M3.9975 33.75L7.27492 35C6.77508 36.4501 5.37508 37.5 3.75 37.5C1.67492 37.5 0 35.8251 0 33.75C0 31.6749 1.67492 30 3.75 30C3.99992 30 4.25 30.025 4.47492 30.0751L3.9975 33.75Z" fill="#3BC8C4"/>
<path d="M7.27492 32.5L6.48438 33.5156L4.92188 31.875L6.62508 31.375C6.92508 31.7 7.15 32.0751 7.27492 32.5Z" fill="#3BC8C4"/>
<path d="M33.5156 33.3594L32.7251 32.5C32.8501 32.0751 33.075 31.7 33.3749 31.375L35 31.7969L33.5156 33.3594Z" fill="#3BC8C4"/>
<path d="M40 33.75C40 35.8251 38.3251 37.5 36.25 37.5C34.6249 37.5 33.2249 36.4501 32.7251 35L36.3626 33.75L35.5251 30.0751C35.75 30.025 36.0001 30 36.25 30C38.3251 30 40 31.6749 40 33.75Z" fill="#3BC8C4"/>
<path d="M32.7251 32.5H7.27492L3.9975 33.75L7.27492 35H32.7251L36.3626 33.75L32.7251 32.5ZM17.15 8.65008L4.475 30.0751L3.9975 33.75L6.625 31.375L19.275 9.92492L20 6.25L17.15 8.65008ZM22.85 8.65008L20 6.25L20.7249 9.92492L33.3749 31.375L36.3625 33.75L35.525 30.0751L22.85 8.65008Z" fill="#C8F036"/>
<path d="M22.85 8.65008C22.3249 9.29992 21.575 9.75008 20.7249 9.92492L20 8.69992L19.2751 9.92492C18.425 9.75008 17.6751 9.29992 17.15 8.65008L20 3.80008L22.85 8.65008Z" fill="#068884"/>
<path d="M7.5 33.75C7.5 34.2 7.42492 34.6001 7.27492 35H1.55L4.47492 30.0751C5.35 30.2499 6.1 30.7001 6.625 31.375L5.95 32.5H7.27492C7.42492 32.8999 7.5 33.3 7.5 33.75Z" fill="#068884"/>
<path d="M38.45 35H32.7251C32.5751 34.6001 32.5 34.2 32.5 33.75C32.5 33.3 32.5751 32.8999 32.7251 32.5H34.05L33.3749 31.375C33.9 30.7001 34.6499 30.25 35.525 30.0751L38.45 35Z" fill="#068884"/>
</svg>
