<svg width="56" height="56" viewBox="0 0 56 56" fill="none" xmlns="http://www.w3.org/2000/svg">
<path d="M28 0L3.75134 14V42L28 56L52.2487 42V14L28 0Z" fill="#C8F036"/>
<path d="M28 42C35.732 42 42 35.732 42 28C42 20.268 35.732 14 28 14C20.268 14 14 20.268 14 28C14 35.732 20.268 42 28 42Z" fill="#3BC8C4"/>
<path d="M52.2485 14L50.4996 12.9902L28 25.9799L5.50036 12.9902L3.75145 14V16.0194L26.25 29.0095V54.9896L28 56L29.75 54.9896V29.0095L52.2485 16.0194V14Z" fill="#3BC8C4"/>
<path d="M39.1554 19.5396L28 25.9799L16.8446 19.5396C16.1412 20.4656 15.5506 21.4818 15.093 22.5678L26.25 29.0095V41.8916C26.8233 41.9631 27.4073 42 28 42C28.5927 42 29.1767 41.9631 29.75 41.8916V29.0095L40.907 22.5677C40.4494 21.4818 39.8587 20.4656 39.1554 19.5396Z" fill="#068884"/>
</svg>
