<svg width="40" height="40" viewBox="0 0 40 40" fill="none" xmlns="http://www.w3.org/2000/svg">
<path d="M23.6501 35.3999L21.7822 35L22.3 33.3251C21.6749 32.8 20.8749 32.5 20 32.5C19.1251 32.5 18.3251 32.8 17.7001 33.3251L18.1807 35L16.3499 35.3999C16.275 35.6751 16.25 35.95 16.25 36.25C16.25 38.3251 17.9249 40 20 40C22.0751 40 23.75 38.3251 23.75 36.25C23.75 35.95 23.725 35.6751 23.6501 35.3999Z" fill="#C8F036"/>
<path d="M23.75 3.75C23.75 1.67492 22.0751 0 20 0C17.9249 0 16.25 1.67492 16.25 3.75C16.25 4.05 16.275 4.32492 16.3499 4.60008L18.8388 4.71922L17.7 6.67492C18.3251 7.2 19.1251 7.5 20 7.5C20.8749 7.5 21.6749 7.2 22.2999 6.67492L21.1612 4.71922L23.65 4.60008C23.725 4.32492 23.75 4.05 23.75 3.75Z" fill="#C8F036"/>
<path d="M35.95 24.875C35.65 24.7 35.325 24.575 35 24.4999L33.75 25.8044L32.5 24.7249C31.7999 25.0249 31.225 25.5498 30.8251 26.2499C30.4751 26.8749 30.3251 27.55 30.3251 28.2L31.8441 28.7376L31.25 30.5749C31.4999 30.8999 31.8249 31.15 32.2 31.3749C33.9999 32.4 36.275 31.7998 37.325 29.9999C38.3501 28.2001 37.7499 25.925 35.95 24.875Z" fill="#C8F036"/>
<path d="M7.84 11.3584L8.75 9.42508C8.50008 9.10008 8.17508 8.85001 7.8 8.62508C6.00008 7.60001 3.725 8.20016 2.675 10.0001C1.64992 11.8 2.25008 14.0751 4.05 15.1251C4.35 15.3001 4.675 15.4251 5 15.5002L6.56281 13.5507L7.5 15.275C8.20008 14.975 8.775 14.4501 9.17492 13.75C9.52492 13.125 9.67492 12.4499 9.67492 11.7999L7.84 11.3584Z" fill="#C8F036"/>
<path d="M37.325 10C36.2751 8.20009 33.9999 7.59993 32.2 8.62501C31.8249 8.84993 31.4999 9.10001 31.25 9.42501L32.0668 11.2871L30.325 11.7999C30.325 12.4499 30.475 13.125 30.825 13.75C31.2249 14.4501 31.7999 14.975 32.4999 15.275L33.7499 14.109L34.9999 15.5001C35.3249 15.425 35.6499 15.3 35.9499 15.125C37.7499 14.075 38.3501 11.7999 37.325 10Z" fill="#C8F036"/>
<path d="M9.675 28.2001C9.675 27.5501 9.525 26.875 9.175 26.25C8.77508 25.5499 8.20008 25.025 7.50008 24.725L6.25008 26.317L5 24.5C4.675 24.5751 4.35 24.7001 4.05 24.8751C2.25008 25.925 1.64992 28.2002 2.675 30.0001C3.72492 31.8 6.00008 32.4002 7.8 31.3751C8.17508 31.1502 8.50008 30.9001 8.75 30.5751L7.15695 27.724L9.675 28.2001Z" fill="#C8F036"/>
<path d="M23.6501 4.60008L21.1613 4.71922L22.3 6.67493L30.3251 11.7999L32.0669 11.2871L31.25 9.42508L23.6501 4.60008ZM32.5 15.275V24.725L33.75 25.8045L35 24.5V15.5L33.75 14.1089L32.5 15.275ZM9.675 28.2001L7.15703 27.7238L8.75 30.5749L16.3499 35.3999L18.1807 35L17.7001 33.3251L9.675 28.2001ZM5 15.5V24.5L6.25 26.317L7.5 24.7251V15.275L6.56281 13.5506L5 15.5ZM30.325 28.2001L22.2999 33.3251L21.7822 35L23.6501 35.3999L31.25 30.5749L31.8441 28.7376L30.325 28.2001ZM16.3499 4.60008L8.75 9.42508L7.84 11.3584L9.675 11.7999L17.7001 6.67493L18.8388 4.71922L16.3499 4.60008Z" fill="#3BC8C4"/>
<path d="M9.675 28.2001C9.65 29.075 9.325 29.9249 8.75 30.5749L5 28.175V24.5C5.85008 24.2751 6.725 24.375 7.5 24.7251V26.825L9.675 28.2001Z" fill="#068884"/>
<path d="M23.6501 35.3999L20 37.7251L16.3499 35.3999C16.55 34.55 17.025 33.8 17.7 33.325L20 34.7749L22.2999 33.325C22.975 33.8001 23.45 34.55 23.6501 35.3999Z" fill="#068884"/>
<path d="M35 24.5V28.1751L31.25 30.575C30.6751 29.925 30.35 29.0751 30.325 28.2002L32.5 26.8249V24.725C33.275 24.375 34.1499 24.2751 35 24.5Z" fill="#068884"/>
<path d="M35 11.8249V15.5C34.1499 15.7249 33.275 15.625 32.5 15.2749V13.175L30.325 11.7998C30.35 10.9249 30.675 10.075 31.25 9.425L35 11.8249Z" fill="#068884"/>
<path d="M9.675 11.7999L7.5 13.1751V15.275C6.725 15.625 5.85008 15.725 5 15.5001V11.825L8.75 9.42508C9.32492 10.0751 9.65 10.925 9.675 11.7999Z" fill="#068884"/>
<path d="M23.6501 4.60007C23.45 5.45 22.975 6.2 22.3 6.675L20 5.22507L17.7001 6.675C17.025 6.2 16.55 5.45 16.35 4.60007L20 2.27492L23.6501 4.60007Z" fill="#068884"/>
</svg>
