<svg viewBox="0 0 55.55 52.23"><path class="ic3-3" d="m51.72,22.69c1.71,0,3.13,1.41,3.13,3.13s-1.41,3.13-3.13,3.13-3.12-1.41-3.12-3.13c-.1-1.71,1.31-3.13,3.12-3.13Z"></path><path class="ic3-3" d="m3.83,39.02c1.71,0,3.12,1.41,3.12,3.13s-1.41,3.13-3.12,3.13-3.13-1.41-3.13-3.13,1.31-3.13,3.13-3.13Z"></path><path class="ic3-2" d="m38.92,7.26c3.23,0,5.85,2.62,5.85,5.85s-2.62,5.85-5.85,5.85-5.85-2.62-5.85-5.85,2.62-5.85,5.85-5.85Zm3.12,5.85c0-1.71-1.41-3.13-3.12-3.13s-3.13,1.41-3.13,3.13,1.41,3.13,3.13,3.13,3.12-1.41,3.12-3.13Z"></path><path class="ic3-3" d="m50.21,11.09v4.03l-2.52.2c-.2.81-.5,1.61-1.01,2.32l1.61,1.92-2.82,2.82-1.92-1.61h0c-.71.4-1.51.71-2.32.91l-.2,2.52h-4.03l-.2-2.52c-.81-.2-1.61-.5-2.32-1.01l-1.92,1.61-2.92-2.72,1.61-1.92c-.4-.71-.81-1.51-1.01-2.32l-2.52-.2v-4.03l2.52-.2c.2-.81.5-1.61,1.01-2.32l-1.61-1.92,2.82-2.82,1.92,1.61c.71-.4,1.51-.81,2.32-1.01l.1-.71.1-1.92h4.03l.2,2.52c.81.2,1.61.5,2.32,1.01l1.91-1.61,2.82,2.82-1.51,1.92c.4.71.81,1.51,1.01,2.32l2.52.3Zm-5.44,2.02c0-3.23-2.62-5.85-5.85-5.85s-5.85,2.62-5.85,5.85,2.62,5.85,5.85,5.85,5.85-2.62,5.85-5.85Z"></path><path class="ic3-1" d="m52.02,35.29c.5,0,.91.41.91.91s-.41.91-.91.91-.91-.41-.91-.91.41-.91.91-.91Z"></path><path class="ic3-1" d="m51.32,1.92c.5,0,.91.41.91.91s-.41.91-.91.91-.91-.41-.91-.91.41-.91.91-.91Z"></path><path class="ic3-1" d="m47.29,50.41c.5,0,.91.41.91.91s-.41.91-.91.91-.91-.41-.91-.91.41-.91.91-.91Z"></path><polygon class="ic3-2" points="43.45 42.14 43.45 51.02 20.77 51.02 43.45 42.14"></polygon><polygon class="ic3-3" points="43.45 38.41 43.45 42.14 20.77 51.02 20.77 47.18 43.45 38.41"></polygon><path class="ic3-2" d="m43.45,20.77v17.64l-22.69,8.87v-7.56h-7.56v-12.6h-6.35l2.52-10.08C9.38,7.96,16.63.6,25.81.6h1.31c3.63,0,6.96,1.21,9.68,3.13l-.1.71c-.81.2-1.61.5-2.32,1.01l-1.92-1.61-2.82,2.82,1.61,1.81c-.4.71-.81,1.51-1.01,2.32l-2.52.2v4.03l2.52.2c.2.81.5,1.61,1.01,2.32l-1.61,2.02,2.82,2.82,1.92-1.61c.71.4,1.51.81,2.32,1.01l.2,2.52h4.03l.2-2.52c.81-.3,1.61-.61,2.32-1.01Z"></path><path class="ic3-1" d="m14.22,47.89c.5,0,.91.41.91.91s-.41.91-.91.91-.91-.41-.91-.91.41-.91.91-.91Z"></path><path class="ic3-1" d="m9.17,0c.5,0,.91.41.91.91s-.41.91-.91.91-.91-.41-.91-.91.41-.91.91-.91Z"></path><path class="ic3-1" d="m7.86,32.16c.5,0,.91.41.91.91s-.41.91-.91.91-.91-.41-.91-.91.41-.91.91-.91Z"></path><path class="ic3-1" d="m2.22,15.12c.5,0,.91.41.91.91s-.41.91-.91.91-.91-.41-.91-.91.41-.91.91-.91Z"></path><path class="ic3-1" d="m20.77,51.62c-.3,0-.5-.2-.6-.4-.1-.3,0-.71.4-.81l22.68-8.87c.3-.1.71,0,.81.4.1.3,0,.71-.4.81l-22.68,8.87h-.2Z"></path><path class="ic3-1" d="m20.77,47.89c-.3,0-.5-.2-.6-.4-.1-.3,0-.71.4-.81l22.68-8.77c.3-.1.71,0,.81.4.1.3,0,.71-.4.81l-22.58,8.67c-.1,0-.2.1-.3.1Z"></path><path class="ic3-1" d="m3.83,45.97c-2.12,0-3.83-1.71-3.83-3.83s1.71-3.83,3.83-3.83,3.83,1.71,3.83,3.83c-.1,2.12-1.81,3.83-3.83,3.83Zm0-6.35c-1.41,0-2.52,1.11-2.52,2.52s1.11,2.52,2.52,2.52,2.52-1.11,2.52-2.52c0-1.31-1.21-2.52-2.52-2.52Z"></path><path class="ic3-1" d="m43.45,51.62h-22.69c-.3,0-.6-.3-.6-.61v-10.69h-6.96c-.3,0-.6-.3-.6-.61v-12h-5.65c-.2,0-.4-.1-.5-.2-.1-.2-.2-.3-.1-.5l2.52-9.98c0-4.54,1.81-8.77,4.94-12C17.04,1.81,21.27.1,25.91.1h1.31c3.63,0,7.16,1.11,10.08,3.23.3.2.3.6.1.91-.2.3-.6.3-.91.1-2.72-2.02-5.95-3.02-9.28-3.02h-1.31c-8.67,0-15.73,7.06-15.73,15.73v.2l-2.32,9.28h5.44c.3,0,.61.3.61.6v12h6.96c.3,0,.61.3.61.6v10.69h21.47v-29.64c0-.3.3-.6.61-.6s.6.3.6.6v30.25c0,.3-.3.61-.71.61Z"></path><path class="ic3-1" d="m40.93,24.9h-4.03c-.3,0-.61-.3-.61-.6l-.2-2.12c-.61-.2-1.11-.4-1.71-.71l-1.61,1.41c-.2.2-.6.2-.81,0l-2.82-2.82c-.2-.2-.2-.61,0-.81l1.41-1.61c-.3-.5-.5-1.11-.71-1.71l-2.12-.2c-.3,0-.6-.3-.6-.61v-4.03c0-.3.3-.6.6-.6l2.12-.2c.2-.61.4-1.11.71-1.71l-1.41-1.61c-.2-.2-.2-.6,0-.81l2.82-2.82c.2-.2.61-.2.81,0l1.61,1.41c.5-.3,1.11-.5,1.71-.71l.2-2.12c0-.3.3-.6.61-.6h4.03c.3,0,.6.3.6.6l.2,2.12c.6.2,1.11.4,1.71.71l1.61-1.41c.2-.2.61-.2.81,0l2.82,2.82c.2.2.2.6,0,.81l-1.31,1.61c.3.5.5,1.11.71,1.71l2.12.2c.3,0,.6.3.6.6v4.03c0,.3-.3.6-.6.6l-2.12.2c-.2.61-.4,1.11-.71,1.71l1.41,1.61c.2.2.2.6,0,.81l-2.82,2.82c-.2.2-.61.2-.81,0l-1.61-1.41c-.5.3-1.11.5-1.71.71l-.2,2.12c-.1.4-.4.6-.71.6Zm-3.43-1.21h2.82l.2-2.02c0-.3.2-.5.5-.61.71-.2,1.51-.5,2.12-.91h.1c.2-.1.5-.1.71.1l1.51,1.31,2.02-2.02-1.31-1.51c-.2-.2-.2-.5-.1-.71.4-.71.71-1.41.91-2.22.1-.3.3-.4.61-.5l2.02-.2v-2.82l-2.02-.2c-.3,0-.5-.2-.61-.5-.2-.81-.5-1.51-.91-2.22-.1-.2-.1-.5.1-.71l1.31-1.51-2.02-2.02-1.51,1.31c-.2.2-.5.2-.71.1-.7-.4-1.41-.71-2.22-.91-.3-.1-.4-.3-.5-.6l-.2-2.02h-2.82l-.1,1.31h0v.81c0,.3-.2.5-.5.6-.81.2-1.51.5-2.22.91-.2.1-.5.1-.71-.1l-1.51-1.31-2.02,2.02,1.31,1.51c.2.2.2.5.1.71-.4.71-.71,1.41-.91,2.22-.1.3-.3.4-.61.5l-2.02.2v2.82l2.02.2c.3,0,.5.2.61.5.2.81.5,1.51.91,2.22.1.2.1.5-.1.71l-1.31,1.41,2.02,2.02,1.51-1.31c.2-.2.5-.2.71-.1.71.4,1.41.71,2.22.91.3.1.4.3.5.61l.1,2.02Z"></path><path class="ic3-1" d="m38.92,19.56c-3.53,0-6.45-2.92-6.45-6.45s2.92-6.45,6.45-6.45,6.45,2.92,6.45,6.45-2.82,6.45-6.45,6.45Zm0-11.7c-2.92,0-5.24,2.32-5.24,5.24s2.32,5.24,5.24,5.24,5.24-2.32,5.24-5.24-2.32-5.24-5.24-5.24Z"></path><path class="ic3-1" d="m38.92,16.84c-2.12,0-3.73-1.71-3.73-3.73,0-2.12,1.71-3.73,3.73-3.73,2.12,0,3.73,1.71,3.73,3.73.1,2.02-1.61,3.73-3.73,3.73Zm0-6.25c-1.41,0-2.52,1.11-2.52,2.52s1.11,2.52,2.52,2.52,2.52-1.11,2.52-2.52-1.11-2.52-2.52-2.52Z"></path><path class="ic3-1" d="m51.72,29.54c-2.12,0-3.83-1.71-3.83-3.83s1.71-3.83,3.83-3.83,3.83,1.71,3.83,3.83c-.1,2.22-1.82,3.83-3.83,3.83Zm0-6.25c-1.41,0-2.52,1.11-2.52,2.52s1.11,2.52,2.52,2.52,2.52-1.11,2.52-2.52-1.21-2.52-2.52-2.52Z"></path></svg>