<svg width="32" height="32" viewBox="0 0 32 32" fill="none" xmlns="http://www.w3.org/2000/svg">
<path fill-rule="evenodd" clip-rule="evenodd" d="M8.27598 11.2972H2.46126V30.0002H8.27598V11.2972ZM8.73756 5.37214C8.73756 3.51057 7.22723 2.00024 5.36878 2.00024C3.50596 2.00024 2 3.51057 2 5.37214C2 7.23184 3.50596 8.74217 5.36878 8.74217C7.22723 8.74217 8.73756 7.23184 8.73756 5.37214ZM17.4976 11.2974H11.9219V30.0004H17.7323V20.7492C17.7323 18.3105 18.1938 15.9459 21.2189 15.9459C24.2018 15.9459 24.2395 18.7356 24.2395 20.9051V30.0004H30.0499V19.7426C30.0499 14.7067 28.9634 10.8343 23.077 10.8343C20.2499 10.8343 18.3531 12.3839 17.5771 13.8549H17.4976V11.2974Z" fill="black"/>
</svg>
