<svg viewBox="0 0 56.16 59.28"><path class="ic2-3" d="m35.29.71H12.7c-2.82,0-5.04,2.32-5.04,5.04v47.79c0,2.82,2.32,5.04,5.04,5.04h22.58c2.82,0,5.04-2.32,5.04-5.04V5.75c0-2.82-2.22-5.04-5.04-5.04Z"></path><path class="ic2-2" d="m33.88,4.44h-4.84v.2c0,.91-.71,1.61-1.61,1.61h-6.75c-.91,0-1.61-.71-1.61-1.61v-.2h-4.84c-1.51,0-2.72,1.21-2.72,2.72v45.07c0,1.51,1.21,2.72,2.72,2.72h19.86c1.51,0,2.72-1.21,2.72-2.72V7.16c-.3-1.51-1.51-2.72-2.92-2.72Z"></path><path class="ic2-2" d="m52.33,8.27c1.71,0,3.12,1.41,3.12,3.13s-1.41,3.13-3.12,3.13-3.13-1.41-3.13-3.13,1.31-3.13,3.13-3.13Z"></path><path class="ic2-2" d="m34.18,30.95v-11.49c0-1.41,1.01-2.62,2.32-3.02,1.91-.5,3.83,1.01,3.83,3.02v8.77h13.91v10.28c0,6.75-5.54,12.3-12.3,12.3s-12.3-5.55-12.3-12.3v-5.44c0-1.21.91-2.12,2.12-2.12h2.42Z"></path><path class="ic2-1" d="m52.02,53.03c.5,0,.91.41.91.91s-.41.91-.91.91-.91-.41-.91-.91.41-.91.91-.91Z"></path><path class="ic2-1" d="m47.29,18.95c.5,0,.91.41.91.91s-.41.91-.91.91-.91-.41-.91-.91.41-.91.91-.91Z"></path><path class="ic2-1" d="m43.76,2.62c.5,0,.91.41.91.91s-.41.91-.91.91-.91-.41-.91-.91.41-.91.91-.91Z"></path><path class="ic2-1" d="m4.13,38.51c.5,0,.91.41.91.91s-.41.91-.91.91-.91-.41-.91-.91.41-.91.91-.91Z"></path><path class="ic2-2" d="m2.52,46.08c1.01,0,1.92.81,1.92,1.92s-.81,1.92-1.92,1.92-1.92-.81-1.92-1.92.91-1.92,1.92-1.92Z"></path><path class="ic2-1" d="m2.22,8.87c.5,0,.91.41.91.91s-.41.91-.91.91-.91-.41-.91-.91.41-.91.91-.91Z"></path><path class="ic2-1" d="m33.88,55.45H14.01c-1.81,0-3.33-1.51-3.33-3.33V7.16c0-1.81,1.51-3.33,3.33-3.33h4.84c.3,0,.61.3.61.6v.2c0,.6.5,1.01,1.01,1.01h6.75c.61,0,1.01-.5,1.01-1.01v-.2c0-.3.3-.6.6-.6h4.84c1.81,0,3.33,1.51,3.33,3.33v9.38c0,.3-.3.61-.6.61s-.61-.3-.61-.61V7.16c0-1.11-.91-2.02-2.02-2.02h-4.23c-.2,1.11-1.11,1.92-2.22,1.92h-6.75c-1.11,0-2.02-.81-2.22-1.92h-4.33c-1.11,0-2.02.91-2.02,2.02v45.07c0,1.11.91,2.02,2.02,2.02h19.86c1.11,0,2.02-.91,2.02-2.02v-2.62c0-.3.3-.61.61-.61s.6.3.6.61v2.62c.1,1.81-1.41,3.23-3.23,3.23Z"></path><path class="ic2-1" d="m35.19,59.28H12.6c-3.13,0-5.75-2.52-5.75-5.75V5.75c0-3.13,2.52-5.75,5.75-5.75h22.58c3.12,0,5.75,2.52,5.75,5.75v17.64c0,.3-.3.61-.6.61h0c-.3,0-.6-.3-.6-.61V5.75c0-2.42-2.02-4.44-4.44-4.44H12.6c-2.42,0-4.44,2.02-4.44,4.44v47.79c0,2.42,2.02,4.44,4.44,4.44h22.58c2.42,0,4.44-2.02,4.44-4.44v-2.82c0-.3.3-.6.61-.6h0c.3,0,.6.3.6.6v2.82c.1,3.13-2.42,5.75-5.65,5.75Z"></path><path class="ic2-1" d="m34.18,38.01c-.3,0-.6-.3-.6-.6v-6.35c0-.3.3-.61.6-.61s.61.3.61.61v6.35c.1.3-.2.6-.61.6Z"></path><path class="ic2-1" d="m40.33,43.25c-.3,0-.6-.3-.6-.6v-10.28c0-.3.3-.6.6-.6s.6.3.6.6v10.28c.1.3-.2.6-.6.6Z"></path><path class="ic2-1" d="m44.46,43.25c-.3,0-.61-.3-.61-.6v-8.27c0-.3.3-.6.61-.6s.6.3.6.6v8.27c0,.3-.2.6-.6.6Z"></path><path class="ic2-1" d="m48.6,43.25c-.3,0-.61-.3-.61-.6v-6.15c0-.3.3-.61.61-.61s.6.3.6.61v6.15c0,.3-.3.6-.6.6Z"></path><path class="ic2-1" d="m41.94,51.42c-.61,0-1.11,0-1.71-.1-1.41-.2-2.72-.6-3.93-1.21-1.31-.61-2.52-1.51-3.53-2.52-2.42-2.42-3.83-5.65-3.83-9.17v-5.44c0-1.51,1.21-2.72,2.72-2.72h1.92v-10.79c0-1.71,1.11-3.23,2.82-3.63.3-.1.6-.1.91-.1,1.01,0,1.92.4,2.62,1.11.71.71,1.11,1.61,1.11,2.62v8.07h13.21c.3,0,.61.3.61.6v10.28c0,7.26-5.85,13.01-12.91,13.01Zm-10.18-19.76c-.81,0-1.51.71-1.51,1.51v5.44c0,3.13,1.21,6.05,3.43,8.27.91.91,2.02,1.71,3.12,2.22,1.11.5,2.32.91,3.63,1.11.5.1,1.01.1,1.51.1,6.45,0,11.7-5.24,11.7-11.7v-9.68h-13.31c-.3,0-.6-.3-.6-.6v-8.77c0-.71-.2-1.31-.71-1.71-.4-.5-1.11-.71-1.71-.71-.2,0-.4,0-.61.1-1.11.3-1.81,1.21-1.81,2.42v11.49c0,.3-.3.6-.61.6l-2.52-.1h0Z"></path><path class="ic2-1" d="m52.33,15.12c-2.12,0-3.83-1.71-3.83-3.83s1.71-3.83,3.83-3.83,3.83,1.71,3.83,3.83-1.82,3.83-3.83,3.83Zm0-6.25c-1.41,0-2.52,1.11-2.52,2.52s1.11,2.52,2.52,2.52,2.52-1.11,2.52-2.52-1.21-2.52-2.52-2.52Z"></path><path class="ic2-1" d="m2.52,50.41c-1.41,0-2.52-1.11-2.52-2.52s1.11-2.52,2.52-2.52,2.52,1.11,2.52,2.52-1.11,2.52-2.52,2.52Zm0-3.73c-.7,0-1.31.61-1.31,1.31s.61,1.31,1.31,1.31,1.31-.61,1.31-1.31-.61-1.31-1.31-1.31Z"></path><path class="ic2-1" d="m26.42,48.6h-15.12c-.3,0-.6-.3-.6-.6s.3-.61.6-.61h15.12c.3,0,.6.3.6.61s-.2.6-.6.6Z"></path><path class="ic2-3" d="m31.36,18.8c0,1.71-.6,3.43-1.51,4.74h0c-1.51-2.12-3.93-3.43-6.65-3.43,1.71,0,3.12-1.41,3.12-3.13s-1.41-3.23-3.12-3.23-3.13,1.41-3.13,3.13,1.41,3.13,3.13,3.13c-2.72,0-5.24,1.41-6.65,3.43h0c-.91-1.31-1.51-2.92-1.51-4.74,0-4.54,3.63-8.17,8.17-8.17,4.54.1,8.17,3.73,8.17,8.27Z"></path><path class="ic2-2" d="m29.84,23.54h0c-1.51,2.12-3.93,3.43-6.65,3.43s-5.24-1.41-6.65-3.43h0c1.51-2.12,3.93-3.43,6.65-3.43s5.24,1.31,6.65,3.43Z"></path><path class="ic2-2" d="m23.19,13.76c1.71,0,3.12,1.41,3.12,3.13s-1.41,3.13-3.12,3.13-3.13-1.41-3.13-3.13,1.41-3.13,3.13-3.13Z"></path><path class="ic2-1" d="m29.84,24.15c-.2,0-.4-.1-.5-.3-1.41-2.02-3.73-3.23-6.15-3.23s-4.74,1.21-6.15,3.23c-.2.3-.6.3-.91.1-.3-.1-.3-.5-.1-.81,1.61-2.32,4.33-3.73,7.16-3.73s5.54,1.41,7.16,3.73c.2.3.1.71-.1.91-.1.1-.2.1-.4.1Z"></path><path class="ic2-1" d="m23.19,20.72c-2.12,0-3.83-1.71-3.83-3.83s1.71-3.83,3.83-3.83,3.83,1.71,3.83,3.83-1.71,3.83-3.83,3.83Zm0-6.35c-1.41,0-2.52,1.11-2.52,2.52s1.11,2.52,2.52,2.52,2.52-1.11,2.52-2.52-1.11-2.52-2.52-2.52Z"></path><path class="ic2-1" d="m23.19,27.68c-2.82,0-5.55-1.41-7.16-3.73h0c-1.01-1.51-1.61-3.23-1.61-5.04,0-4.84,3.93-8.87,8.87-8.87s8.87,3.93,8.87,8.87c0,1.81-.6,3.63-1.61,5.04-1.81,2.32-4.54,3.73-7.36,3.73Zm-6.15-4.54c1.41,2.02,3.73,3.23,6.15,3.23s4.74-1.21,6.15-3.23c.91-1.31,1.41-2.82,1.41-4.34,0-4.13-3.43-7.56-7.56-7.56s-7.56,3.43-7.56,7.56c0,1.61.5,3.13,1.41,4.34h0Z"></path></svg>