<svg width="56" height="56" viewBox="0 0 56 56" fill="none" xmlns="http://www.w3.org/2000/svg">
<g clip-path="url(#clip0_92_3244)">
<path d="M11.9699 21.385L16.415 28L11.9699 34.615C8.43489 32.62 4.375 31.5 0 31.5V24.5C4.375 24.5 8.43489 23.38 11.9699 21.385Z" fill="#C8F036"/>
<path d="M28 39.585L34.615 44.0299C32.62 47.5649 31.5 51.625 31.5 56H24.5C24.5 51.625 23.38 47.5649 21.385 44.0299L28 39.585Z" fill="#C8F036"/>
<path d="M21.385 11.9699C23.38 8.43489 24.5 4.375 24.5 0H31.5C31.5 4.375 32.62 8.43489 34.615 11.9699L28 16.3886L21.385 11.9699Z" fill="#C8F036"/>
<path d="M18.41 18.41H37.5899V37.5899H18.41V18.41Z" fill="#C8F036"/>
<path d="M56 24.5V31.5C51.625 31.5 47.5651 32.62 44.0301 34.615L39.585 28L44.0301 21.385C47.5651 23.38 51.625 24.5 56 24.5Z" fill="#C8F036"/>
<path d="M37.59 37.59L34.6151 44.0299C38.5351 45.1151 42.2451 47.18 45.3251 50.26L50.26 45.325C47.18 42.245 45.1151 38.535 44.0301 34.615L37.59 37.59ZM44.0301 21.385C45.1151 17.465 47.18 13.755 50.26 10.675L45.325 5.73999C42.245 8.81977 38.535 10.8849 34.615 11.9699L37.5899 18.41L44.0301 21.385ZM5.74 10.675C8.82 13.755 10.8849 17.465 11.9699 21.385L18.41 18.4101L21.3849 11.97C17.4649 10.885 13.7549 8.81988 10.6749 5.7401L5.74 10.675ZM11.9699 34.615C10.8849 38.535 8.82 42.245 5.74 45.325L10.675 50.26C13.755 47.18 17.465 45.1151 21.385 44.0299L18.41 37.59L11.9699 34.615Z" fill="#3BC8C4"/>
<path d="M28 31.5C29.933 31.5 31.5 29.933 31.5 28C31.5 26.067 29.933 24.5 28 24.5C26.067 24.5 24.5 26.067 24.5 28C24.5 29.933 26.067 31.5 28 31.5Z" fill="#3BC8C4"/>
<path d="M44.0301 21.385C40.0751 19.18 36.8201 15.925 34.6151 11.97C30.31 13.1949 25.6901 13.1949 21.385 11.97C20.3 13.9299 18.9001 15.75 17.325 17.325C15.75 18.8998 13.9299 20.2999 11.9699 21.3849C12.5999 23.5549 12.915 25.7599 12.915 27.9999C12.915 30.2399 12.5999 32.4448 11.9699 34.6149C13.9299 35.7 15.75 37.0999 17.325 38.675C18.9 40.2501 20.2999 42.0699 21.3849 44.0299C23.5549 43.3999 25.7599 43.085 27.9999 43.085C30.2399 43.085 32.445 43.3999 34.6149 44.0299C35.7 42.0699 37.0999 40.25 38.675 38.675C40.2501 37.1 42.0701 35.7001 44.0301 34.6151C43.4001 32.4449 43.085 30.2401 43.085 28.0001C43.085 25.7601 43.4001 23.5549 44.0301 21.385ZM37.59 37.59C34.545 36.6099 31.29 36.085 28 36.085C24.71 36.085 21.455 36.6099 18.41 37.59C20.37 31.3599 20.37 24.64 18.41 18.4101C21.455 19.39 24.71 19.9151 28 19.9151C31.29 19.9151 34.545 19.39 37.59 18.4101C35.63 24.6399 35.63 31.3599 37.59 37.59Z" fill="#068884"/>
</g>
<defs>
<clipPath id="clip0_92_3244">
<rect width="56" height="56" fill="white"/>
</clipPath>
</defs>
</svg>
