<svg width="56" height="56" viewBox="0 0 56 56" fill="none" xmlns="http://www.w3.org/2000/svg">
<path d="M54 2V8.5C54 16.2675 50.5875 23.2549 45.1924 28H10.8076C10.3851 27.6425 9.9951 27.2851 9.6051 26.8949C4.9251 22.1826 2 15.6826 2 8.5V2H5.25C5.25 6.485 7.07 10.5475 9.9951 13.5049C12.9525 16.43 17.015 18.25 21.5 18.25H34.5C43.47 18.25 50.75 10.97 50.75 2H54Z" fill="#C8F036"/>
<path d="M54 47.5V54H50.75C50.75 45.03 43.47 37.75 34.5 37.75H21.5C17.015 37.75 12.9525 39.57 9.9951 42.4949C7.07 45.4525 5.25 49.515 5.25 54H2V47.5C2 40.3174 4.9251 33.8174 9.6051 29.1049C9.9951 28.7149 10.3851 28.3575 10.8076 28H45.1925C50.5875 32.7449 54 39.7325 54 47.5Z" fill="#3BC8C4"/>
<path d="M28 14C31.866 14 35 10.866 35 7C35 3.13401 31.866 0 28 0C24.134 0 21 3.13401 21 7C21 10.866 24.134 14 28 14Z" fill="#3BC8C4"/>
<path d="M28 56C31.866 56 35 52.866 35 49C35 45.134 31.866 42 28 42C24.134 42 21 45.134 21 49C21 52.866 24.134 56 28 56Z" fill="#C8F036"/>
<path d="M45.1924 28C45.0489 28.1261 44.9041 28.2509 44.7578 28.374C40.2329 32.1822 34.391 34.5 28 34.5C21.5611 34.5 15.6795 32.1473 11.1406 28.288C11.0288 28.193 10.9178 28.0969 10.8076 28C10.9178 27.9031 11.0288 27.8071 11.1406 27.712C15.6795 23.8526 21.5611 21.5 28 21.5C34.391 21.5 40.2329 23.8178 44.7578 27.626C44.9041 27.7491 45.049 27.8739 45.1924 28Z" fill="#068884"/>
</svg>
